<?xml version="1.0" standalone="no"?>
<!DOCTYPE svg PUBLIC "-//W3C//DTD SVG 20010904//EN"
 "http://www.w3.org/TR/2001/REC-SVG-20010904/DTD/svg10.dtd">
<svg version="1.0" xmlns="http://www.w3.org/2000/svg"
 width="500.000000pt" height="500.000000pt" viewBox="0 0 500.000000 500.000000"
 preserveAspectRatio="xMidYMid meet">

<g transform="translate(0.000000,500.000000) scale(0.100000,-0.100000)"
fill="#000000" stroke="none">
<path d="M614 4811 c-32 -20 -104 -98 -104 -114 0 -5 -23 -32 -50 -59 -86 -85
-126 -194 -102 -281 9 -33 8 -38 -9 -47 -28 -16 -23 -41 21 -103 l40 -56 -28
-33 c-89 -102 -163 -234 -215 -384 -96 -276 -96 -601 -1 -866 78 -215 226
-413 405 -540 l65 -47 12 -126 c16 -174 44 -301 98 -452 25 -70 48 -135 50
-144 4 -11 -4 -20 -26 -29 -37 -15 -50 -37 -50 -82 1 -45 22 -70 67 -77 38 -6
38 -7 37 -51 -1 -87 16 -262 30 -295 29 -69 102 -83 147 -27 18 24 21 36 16
95 -5 59 -4 67 11 67 9 -1 33 -21 52 -46 94 -121 324 -314 472 -396 l77 -43 1
-45 c0 -25 3 -56 6 -70 5 -19 -7 -11 -50 37 -72 79 -111 103 -168 103 -52 0
-82 -25 -98 -81 -6 -19 -10 -105 -10 -192 0 -154 1 -158 25 -182 26 -27 60
-32 98 -14 35 16 47 50 47 135 0 48 4 73 10 69 6 -3 38 -39 72 -78 99 -116
162 -149 216 -111 28 19 52 65 53 101 0 15 7 -3 15 -41 16 -82 42 -116 89
-116 18 0 44 9 58 20 24 19 25 21 24 159 -1 77 1 143 5 146 3 3 17 3 32 -1
l26 -6 0 -119 c0 -141 9 -159 83 -159 66 0 81 22 87 131 l5 89 65 -81 c102
-129 169 -165 228 -123 36 25 47 54 52 139 5 74 7 80 28 83 27 4 27 1 2 -45
-40 -74 -12 -175 58 -216 70 -41 256 -28 362 26 59 30 86 80 71 133 -13 47
-38 74 -68 74 -13 0 -48 -14 -79 -31 -30 -17 -58 -29 -61 -25 -3 3 2 8 11 12
26 10 49 62 42 98 l-5 31 118 38 c101 33 123 37 142 27 13 -8 39 -10 66 -6
l44 6 -60 -50 c-108 -90 -143 -153 -117 -213 24 -58 60 -71 185 -63 79 5 127
3 188 -9 74 -14 86 -14 112 -1 32 17 41 34 41 80 0 59 -56 89 -192 104 l-60 7
75 52 c101 71 137 113 137 162 0 47 -30 88 -79 108 l-36 16 29 21 c73 52 207
169 270 235 38 40 83 79 99 87 27 14 33 14 90 -10 88 -35 113 -39 132 -20 17
18 13 63 -12 124 -12 30 -12 36 0 45 8 5 35 25 61 42 74 52 58 92 -46 118 -16
4 -28 10 -28 14 0 4 20 51 44 106 86 197 136 387 157 600 l12 120 70 45 c90
58 219 184 286 280 146 207 213 430 214 705 0 175 -18 288 -70 439 -52 150
-126 282 -215 384 l-28 33 40 56 c44 62 49 87 21 103 -17 9 -18 14 -9 47 24
87 -16 196 -102 281 -27 27 -50 54 -50 59 0 17 -80 103 -111 118 -47 25 -85
19 -126 -19 l-37 -34 -33 25 c-91 70 -223 22 -223 -81 l0 -41 -48 3 c-41 3
-54 -1 -80 -23 -55 -46 -53 -112 8 -209 25 -39 29 -53 24 -89 -3 -23 -1 -62 6
-87 28 -107 109 -158 264 -167 l93 -6 15 -41 c15 -39 17 -41 55 -39 22 1 67
13 101 26 l62 25 61 -81 c79 -104 152 -254 186 -382 24 -90 27 -118 27 -285 1
-147 -3 -202 -18 -265 -47 -207 -172 -415 -321 -538 -32 -26 -60 -47 -64 -47
-4 0 -13 44 -20 98 -42 317 -175 630 -376 887 -85 109 -271 286 -385 367 -633
449 -1493 449 -2130 0 -124 -87 -356 -319 -440 -440 -168 -240 -282 -527 -321
-806 -7 -47 -15 -86 -19 -86 -14 0 -140 130 -186 192 -93 126 -161 294 -184
457 -19 128 -8 342 24 466 33 127 105 277 185 382 l61 81 62 -25 c34 -13 79
-25 101 -26 38 -2 40 0 55 39 l15 41 93 6 c155 9 236 60 264 167 7 25 9 64 6
87 -5 36 -1 50 24 89 61 97 63 163 8 209 -26 22 -39 26 -80 23 l-48 -3 0 41
c0 103 -132 151 -223 81 l-33 -25 -37 34 c-43 40 -85 44 -133 15z m103 -53
c13 -12 23 -27 23 -34 0 -7 -16 -44 -35 -81 -20 -37 -39 -88 -43 -113 -6 -36
-12 -46 -29 -48 -32 -5 -58 13 -77 52 -33 69 -10 154 58 214 43 37 71 40 103
10z m3669 -10 c68 -60 91 -145 58 -214 -19 -39 -45 -57 -77 -52 -17 2 -23 12
-29 48 -4 25 -23 76 -43 113 -19 37 -35 73 -35 79 0 21 43 58 66 58 13 0 40
-15 60 -32z m-3417 6 c20 -15 23 -23 19 -66 -5 -43 -12 -56 -48 -91 -24 -23
-54 -59 -67 -79 -20 -33 -28 -38 -62 -38 -21 0 -53 -3 -70 -6 -30 -6 -31 -6
-31 32 0 42 39 128 86 190 54 70 123 93 173 58z m3170 1 c61 -31 151 -180 151
-249 0 -38 -1 -38 -31 -32 -17 3 -49 6 -70 6 -34 0 -42 5 -62 38 -13 20 -43
56 -67 79 -36 35 -43 48 -48 91 -4 43 -1 51 19 66 29 20 71 21 108 1z m-2999
-155 c25 -25 25 -44 1 -95 -33 -70 -44 -80 -72 -64 -13 7 -55 20 -94 29 l-70
16 48 51 c76 81 146 104 187 63z m2825 4 c19 -9 55 -39 82 -67 l48 -51 -70
-16 c-39 -9 -81 -22 -94 -29 -28 -16 -39 -6 -72 64 -24 51 -24 70 1 95 24 24
60 26 105 4z m-3441 -119 c23 -34 72 -58 112 -53 33 4 34 3 34 -29 0 -27 -5
-34 -25 -39 -33 -8 -55 -41 -55 -82 0 -29 3 -33 23 -30 15 2 22 10 23 27 2 44
52 56 77 18 22 -35 121 -107 145 -107 34 0 27 32 -14 59 -59 41 -124 112 -124
137 0 14 9 28 22 35 33 18 183 13 252 -8 77 -24 101 -54 92 -115 -16 -105 -86
-152 -226 -153 -47 0 -104 4 -127 9 -37 7 -44 6 -50 -10 -3 -10 -2 -19 3 -21
28 -10 36 -22 30 -46 -6 -24 -8 -25 -43 -15 -91 25 -199 95 -254 164 -31 39
-32 59 -1 31 23 -21 51 -22 58 -2 4 9 -4 24 -21 37 -32 25 -55 74 -55 116 0
42 26 110 57 150 l26 35 13 -42 c6 -23 19 -53 28 -66z m4061 -3 c27 -81 13
-149 -40 -190 -17 -13 -25 -28 -21 -37 7 -20 35 -19 58 2 31 28 30 8 -1 -31
-55 -69 -163 -139 -254 -164 -35 -10 -37 -9 -43 15 -6 24 2 36 30 46 5 2 6 11
3 21 -6 16 -13 17 -50 10 -23 -5 -80 -9 -127 -9 -140 1 -210 48 -226 153 -9
61 15 91 92 115 69 21 219 26 252 8 13 -7 22 -21 22 -35 0 -25 -65 -96 -124
-137 -41 -27 -48 -59 -14 -59 24 0 123 72 145 107 25 38 75 26 77 -18 1 -17 8
-25 24 -27 19 -3 22 1 22 30 0 41 -22 74 -55 82 -20 5 -25 12 -25 39 0 31 1
32 38 29 50 -4 98 27 122 81 11 23 20 51 20 62 1 31 56 -37 75 -93z m-1924
-393 c218 -22 401 -75 609 -175 l135 -65 -60 -32 c-82 -44 -169 -127 -201
-193 -54 -111 -19 -245 99 -371 79 -84 144 -130 347 -243 91 -51 181 -105 201
-121 61 -48 65 -69 46 -248 -10 -86 -14 -174 -11 -196 14 -85 54 -134 134
-165 96 -37 149 -93 157 -164 7 -56 -11 -94 -88 -191 -126 -158 -169 -249
-169 -356 0 -34 -7 -73 -17 -94 -17 -35 -17 -35 -81 -35 -118 0 -134 -37 -51
-125 l51 -54 -12 -75 c-11 -68 -11 -78 5 -103 l18 -27 -44 -39 c-24 -21 -73
-63 -107 -92 l-64 -53 -62 63 c-49 50 -73 66 -116 79 -61 18 -120 20 -168 7
l-33 -10 29 27 c16 15 33 38 37 51 10 32 -3 89 -26 112 -27 27 -67 24 -130
-11 -30 -16 -58 -30 -64 -29 -5 0 2 6 17 15 78 42 60 146 -28 165 -30 6 -24 7
26 3 104 -8 111 -7 139 14 65 48 19 148 -80 172 -57 14 -118 7 -198 -21 -75
-26 -116 -60 -137 -115 -15 -39 -16 -54 -7 -99 10 -46 9 -58 -6 -88 l-17 -34
-12 131 c-6 72 -17 148 -23 170 -24 86 -95 112 -151 55 -31 -30 -31 -31 -26
-117 l5 -88 -76 78 c-61 61 -84 78 -115 84 -46 8 -78 -6 -110 -49 -19 -25 -22
-47 -27 -195 -3 -92 -6 -153 -7 -136 -6 94 -107 320 -168 373 -37 33 -89 47
-131 36 -61 -15 -141 -139 -223 -348 l-27 -69 -11 30 c-17 49 -52 66 -123 59
l-60 -5 7 36 c11 61 40 130 84 197 49 75 61 132 36 170 -30 46 -94 82 -300
169 -276 117 -327 152 -312 211 3 13 36 61 72 107 37 45 73 97 80 115 21 50
17 104 -12 159 -71 133 -51 173 166 325 131 91 296 249 322 306 34 76 10 119
-127 229 -100 79 -135 119 -135 154 0 72 132 154 449 280 101 40 212 112 265
170 57 63 79 121 74 191 l-4 58 51 11 c136 28 334 36 496 19z m-598 -79 c15
-43 -9 -104 -64 -164 -65 -72 -132 -112 -303 -181 -321 -129 -446 -230 -416
-334 14 -49 40 -79 136 -156 147 -119 158 -142 100 -215 -47 -59 -184 -180
-280 -247 -170 -118 -226 -183 -226 -262 0 -19 16 -69 36 -113 36 -79 36 -80
20 -121 -9 -23 -41 -73 -72 -112 -100 -125 -108 -168 -47 -236 41 -45 108 -82
294 -159 310 -130 328 -150 248 -272 l-41 -63 7 56 c7 61 -9 111 -40 123 -31
12 -83 6 -104 -11 -26 -22 -37 -96 -46 -303 -6 -136 -5 -147 15 -178 23 -37
72 -62 123 -62 30 0 38 -7 71 -55 37 -53 88 -104 155 -157 31 -24 33 -28 19
-42 -14 -14 -24 -10 -104 40 -156 97 -280 201 -389 323 l-56 63 48 23 c83 39
113 87 113 178 0 63 -28 127 -66 154 -51 36 -98 45 -221 42 l-118 -3 -37 91
c-47 113 -82 249 -104 395 -23 157 -15 470 16 613 135 633 589 1142 1194 1341
56 19 108 33 116 31 8 -1 19 -13 23 -27z m1473 -256 c355 -254 608 -644 700
-1078 20 -95 27 -161 31 -308 9 -310 -27 -502 -145 -781 l-46 -109 -28 55
c-41 81 -82 105 -120 70 -19 -17 -19 -16 -13 12 15 66 76 176 154 274 101 129
121 182 97 265 -21 72 -77 129 -171 172 -45 20 -81 44 -92 60 -25 39 -28 129
-8 282 20 156 15 179 -48 238 -55 54 -76 67 -242 159 -224 124 -309 188 -370
281 -117 176 -69 310 158 435 28 16 55 29 58 29 4 0 42 -25 85 -56z m450
-2181 c9 -10 28 -42 41 -73 13 -30 28 -61 32 -69 4 -8 31 -20 59 -27 62 -16
92 -31 92 -45 0 -5 -29 -28 -64 -50 l-64 -40 18 -42 c25 -58 36 -117 20 -117
-15 0 -142 50 -154 60 -4 5 -40 -9 -80 -31 -39 -21 -81 -39 -93 -39 -27 0 -29
16 -9 110 l13 64 -53 51 c-77 73 -73 85 24 85 l79 0 24 52 c28 60 75 128 88
128 5 0 17 -8 27 -17z m-2572 -66 c13 -19 14 -43 4 -173 -7 -82 -9 -158 -5
-167 6 -16 16 -17 81 -11 67 6 75 5 95 -15 11 -11 21 -29 21 -39 0 -38 -36
-55 -136 -66 -85 -9 -99 -8 -129 8 -51 28 -58 57 -50 203 10 178 21 264 37
274 26 17 67 10 82 -14z m1246 -20 c19 -43 40 -206 39 -301 0 -69 -19 -117
-51 -136 -25 -14 -31 -13 -64 5 -20 11 -75 64 -122 118 -108 126 -116 125
-120 -8 -2 -74 -7 -104 -19 -117 -20 -22 -51 -23 -75 -1 -16 14 -18 33 -17
167 0 89 5 165 12 186 15 42 53 66 91 56 32 -8 132 -99 168 -152 26 -39 65
-44 60 -9 -1 11 -5 59 -9 108 -7 99 6 127 59 127 25 0 32 -7 48 -43z m439 13
c79 -22 109 -95 52 -125 -23 -11 -36 -12 -61 -4 -45 16 -127 6 -152 -19 -29
-28 -15 -42 42 -42 111 0 108 -100 -3 -129 -56 -14 -82 -33 -73 -56 10 -27 95
-13 182 30 89 43 108 44 124 5 15 -36 7 -73 -22 -100 -58 -54 -281 -88 -348
-53 -77 40 -102 128 -55 196 23 35 23 39 10 71 -43 102 14 182 155 220 66 18
104 19 149 6z m-2065 -141 c-8 -14 -24 -10 -24 6 0 9 6 12 15 9 8 -4 12 -10 9
-15z m914 -74 c12 -19 22 -39 22 -45 0 -5 -22 -10 -50 -10 -27 0 -50 2 -50 6
0 9 45 84 50 84 3 0 15 -16 28 -35z m532 -176 c59 -66 109 -99 150 -99 32 0
90 62 91 97 1 30 3 26 13 -20 9 -41 72 -105 114 -117 50 -13 124 -12 197 3
l60 13 -95 -92 c-123 -120 -138 -131 -212 -160 -47 -18 -81 -24 -143 -24 -79
0 -81 1 -98 30 -10 16 -30 33 -44 37 -39 9 -94 -24 -107 -64 -6 -19 -27 -43
-47 -57 l-36 -25 -24 25 c-80 86 -183 63 -212 -47 l-12 -46 -80 22 c-73 20
-78 22 -57 34 16 8 28 9 41 1 27 -14 58 -13 68 3 4 6 9 28 10 47 1 19 5 52 9
72 6 34 4 38 -19 43 -14 4 -33 15 -43 26 -22 24 -56 24 -78 0 -9 -10 -30 -21
-47 -25 -38 -7 -47 -32 -25 -69 25 -44 12 -45 -36 -1 -24 22 -70 58 -103 79
-72 48 -174 142 -197 183 l-18 30 45 6 c32 5 51 15 70 37 l25 31 0 -25 c0 -39
10 -56 41 -72 44 -23 69 -18 107 22 34 37 35 37 128 41 l93 4 35 -37 c32 -34
40 -37 72 -32 39 7 74 32 74 54 0 7 5 13 10 13 6 0 10 -5 10 -10 0 -18 66 -43
94 -36 55 14 66 37 66 139 l1 92 25 -30 c14 -16 52 -60 84 -96z m918 -165 c45
-22 102 -81 102 -105 0 -18 -64 -44 -138 -56 -82 -13 -148 -38 -169 -65 -6 -7
-13 -25 -17 -39 -4 -19 -17 -31 -43 -42 l-38 -15 -6 29 c-11 50 -70 99 -119
99 -37 0 112 154 184 190 80 41 168 42 244 4z m127 -195 c73 -20 106 -69 80
-119 -16 -31 -51 -62 -153 -135 -88 -64 -83 -78 31 -87 51 -4 102 -14 124 -25
32 -15 38 -23 41 -55 4 -51 -20 -63 -94 -48 -30 6 -120 12 -200 13 -140 2
-147 3 -165 26 -10 13 -19 34 -19 46 0 35 56 102 145 174 88 70 88 71 77 88
-6 10 -19 9 -56 -2 -60 -18 -98 -19 -114 -3 -13 13 -16 57 -4 74 31 47 213 79
307 53z m-994 -29 c27 -36 40 -117 42 -267 1 -120 -1 -135 -19 -160 -47 -63
-102 -38 -215 99 -52 62 -88 98 -98 96 -13 -3 -16 -21 -19 -106 -3 -96 -4
-103 -27 -118 -30 -19 -70 -12 -85 15 -16 32 3 333 23 365 21 32 58 42 97 26
30 -12 103 -85 154 -152 46 -62 68 -49 55 31 -4 25 -8 72 -8 103 -1 47 3 61
21 78 28 26 56 22 79 -10z m438 -1 c83 -18 120 -89 65 -125 -21 -15 -31 -15
-58 -6 -46 17 -95 15 -136 -6 -54 -27 -46 -46 23 -52 60 -5 77 -17 77 -56 0
-34 -22 -54 -90 -77 -53 -18 -66 -26 -68 -46 -4 -24 -3 -24 54 -18 37 4 85 19
130 41 39 20 78 36 87 36 34 0 57 -67 36 -107 -38 -70 -283 -121 -375 -77 -71
34 -96 129 -51 195 22 32 22 37 9 69 -43 105 33 199 183 230 57 11 59 11 114
-1z m-324 -99 c-8 -16 -15 -45 -15 -65 0 -24 -4 -35 -15 -35 -11 0 -15 11 -15
43 0 23 -3 52 -6 65 -6 20 -3 22 30 22 l37 0 -16 -30z m-241 -42 c3 -17 4 -33
2 -35 -7 -7 -37 48 -31 57 11 18 22 10 29 -22z m-545 -7 c7 -5 10 -14 7 -20
-4 -6 -13 -42 -20 -79 l-13 -67 -4 88 c-4 87 0 97 30 78z m1038 -7 c-3 -3 -12
-4 -19 -1 -8 3 -5 6 6 6 11 1 17 -2 13 -5z m-12 -194 c-11 -5 -27 -9 -35 -9
-9 0 -8 4 5 9 11 5 27 9 35 9 9 0 8 -4 -5 -9z"/>
<path d="M1864 2850 c-33 -16 -71 -41 -84 -55 -22 -24 -23 -26 -7 -42 16 -16
19 -16 44 5 110 89 226 94 328 16 61 -46 91 -8 33 42 -55 46 -106 64 -184 64
-59 0 -81 -5 -130 -30z"/>
<path d="M2865 2861 c-50 -23 -105 -68 -105 -87 0 -26 28 -26 63 0 102 78 220
73 330 -16 25 -21 28 -21 44 -5 16 16 15 18 -7 42 -13 14 -51 39 -84 55 -49
25 -71 30 -130 30 -47 0 -85 -7 -111 -19z"/>
<path d="M1925 2741 c-209 -54 -327 -312 -251 -548 7 -21 4 -23 -27 -23 -40 0
-67 -24 -48 -43 7 -7 40 -10 89 -9 47 2 100 -3 136 -13 77 -20 184 -77 241
-127 45 -40 77 -46 83 -17 2 9 24 38 51 66 229 238 110 691 -189 717 -30 3
-68 2 -85 -3z m123 -56 c57 -17 77 -34 32 -27 -44 6 -132 -24 -176 -62 -43
-37 -86 -106 -69 -112 34 -13 196 -111 196 -119 -1 -11 -55 -8 -163 9 l-78 13
-6 -35 c-6 -33 -2 -94 11 -158 7 -30 6 -31 -25 -26 -47 7 -64 52 -64 172 0
122 25 188 97 266 39 42 66 60 107 74 67 24 74 24 138 5z"/>
<path d="M2909 2737 c-61 -17 -135 -72 -177 -129 -125 -175 -102 -456 50 -593
20 -18 38 -42 40 -52 6 -32 37 -26 86 17 102 90 255 146 379 138 54 -4 76 -1
84 9 18 20 -8 43 -48 43 -30 0 -34 3 -28 18 20 48 28 155 18 222 -36 229 -220
379 -404 327z m140 -53 c60 -18 129 -75 166 -139 53 -90 68 -250 31 -338 -11
-27 -21 -35 -46 -39 -31 -5 -32 -4 -25 26 13 64 17 125 11 159 l-6 34 -48 -8
c-90 -16 -193 -25 -198 -18 -5 8 83 64 159 100 26 13 47 28 47 34 0 22 -60 94
-97 119 -44 29 -122 50 -158 44 -41 -8 -17 11 33 26 61 19 69 19 131 0z"/>
<path d="M2404 2206 c-38 -17 -47 -30 -39 -55 14 -46 158 -67 225 -33 42 21
48 43 20 70 -37 34 -147 43 -206 18z"/>
<path d="M1660 2020 c-31 -31 -25 -65 20 -113 70 -76 207 -127 284 -106 149
41 -42 239 -229 239 -42 0 -60 -5 -75 -20z m183 -58 c52 -23 117 -78 117 -99
0 -13 -10 -15 -54 -10 -87 9 -206 80 -206 123 0 14 7 16 50 11 27 -3 69 -15
93 -25z"/>
<path d="M3116 2015 c-111 -45 -182 -126 -159 -178 36 -78 236 -36 333 70 45
48 51 82 20 113 -29 29 -117 27 -194 -5z m154 -40 c0 -42 -120 -113 -206 -122
-43 -5 -54 -3 -54 9 0 16 40 56 82 83 63 40 178 59 178 30z"/>
<path d="M2293 2010 c-7 -11 -27 -23 -45 -28 -38 -10 -50 -41 -20 -49 15 -3
22 -16 26 -48 9 -58 62 -143 111 -177 49 -34 119 -45 180 -28 84 23 167 121
182 214 4 26 11 36 27 38 35 5 27 40 -12 50 -18 5 -38 17 -45 28 -14 24 -43
26 -55 4 -10 -19 -99 -44 -154 -44 -68 0 -136 19 -141 41 -7 25 -39 25 -54 -1z
m317 -85 c0 -31 -122 -45 -206 -24 -70 18 -51 30 39 23 65 -4 131 2 165 15 1
1 2 -6 2 -14z m-113 -185 c12 0 23 7 27 15 6 16 46 21 46 5 0 -29 -107 -43
-151 -20 -22 12 -22 13 -4 26 16 12 22 11 40 -6 12 -11 31 -20 42 -20z"/>
<path d="M3374 1555 c-73 -16 -120 -38 -134 -64 -31 -59 9 -131 74 -131 l35 0
3 -146 c3 -146 3 -146 31 -170 47 -40 104 -29 132 26 11 22 15 64 15 175 l0
145 30 0 c67 0 107 93 61 139 -41 41 -135 50 -247 26z m214 -41 c26 -17 29
-55 6 -74 -8 -8 -32 -16 -52 -19 l-37 -6 -6 -140 c-4 -77 -7 -152 -8 -167 -1
-33 -37 -60 -69 -52 -34 9 -44 62 -40 216 3 134 2 138 -17 131 -45 -16 -78 -9
-94 19 -12 21 -13 32 -5 45 35 59 251 90 322 47z"/>
<path d="M2369 911 c-21 -17 -26 -17 -46 -4 -70 46 -186 -83 -127 -141 22 -22
60 -20 77 5 14 19 17 20 45 5 45 -23 70 -20 103 13 38 38 41 101 7 125 -28 20
-31 20 -59 -3z m51 -54 c0 -61 -51 -85 -100 -47 -33 26 -45 25 -59 -6 -14 -31
-45 -29 -49 4 -4 24 46 82 71 82 8 0 27 -10 42 -22 l28 -22 19 27 c24 33 48
25 48 -16z"/>
<path d="M916 3858 c-3 -13 -8 -45 -11 -72 -8 -62 -36 -91 -98 -100 -38 -6
-47 -11 -47 -27 0 -11 6 -21 13 -23 6 -2 31 -9 54 -15 49 -13 69 -42 78 -112
11 -76 15 -89 30 -89 20 0 28 18 36 83 9 79 28 103 95 123 62 18 71 43 19 55
-17 4 -43 10 -58 13 -33 8 -57 55 -57 111 0 64 -43 106 -54 53z m44 -231 l-22
-25 -22 25 -22 26 20 22 21 22 24 -22 23 -22 -22 -26z"/>
<path d="M577 3624 c-4 -4 -10 -29 -13 -55 -8 -63 -22 -80 -70 -88 -30 -5 -39
-11 -39 -26 0 -15 11 -24 43 -34 48 -15 57 -29 67 -103 3 -26 11 -50 16 -54
17 -10 39 17 39 48 0 16 6 44 14 63 11 27 23 36 55 45 22 6 43 15 46 21 11 16
-16 39 -46 39 -46 0 -61 24 -71 120 -3 24 -27 38 -41 24z m32 -168 c8 -10 8
-16 -3 -25 -10 -9 -16 -8 -26 3 -12 15 -6 36 9 36 5 0 14 -6 20 -14z"/>
</g>
</svg>
